PathFileType	4	(X/Y/Z)	c:/Users/goper/Files/vsCode/490R/osim_files/C12/C12_ROM.trc
DataRate	CameraRate	NumFrames	NumMarkers	Units                	OrigDataRate	OrigDataStartFrame	OrigNumFrames
120.00	120.00	8	36	mm	120.0	1195	1911
                Frame#	Time	LPSIS			LASIS			LTH1			LTH2			LTH3			LTH4			LLFE			LMFE			LSH1			LSH2			LSH3			LSH4			LLMAL			LMMAL			LCAL			LMTP5			LTOE			LMTP1			RPSIS			RASIS			RTH1			RTH2			RTH3			RTH4			RLFE			RMFE			RSH1			RSH2			RSH3			RSH4			RLMAL			RMMAL			RCAL			RMTP1			RTOE			RMTP5		
		X1	Y1	Z1	X2	Y2	Z2	X3	Y3	Z3	X4	Y4	Z4	X5	Y5	Z5	X6	Y6	Z6	X7	Y7	Z7	X8	Y8	Z8	X9	Y9	Z9	X10	Y10	Z10	X11	Y11	Z11	X12	Y12	Z12	X13	Y13	Z13	X14	Y14	Z14	X15	Y15	Z15	X16	Y16	Z16	X17	Y17	Z17	X18	Y18	Z18	X19	Y19	Z19	X20	Y20	Z20	X21	Y21	Z21	X22	Y22	Z22	X23	Y23	Z23	X24	Y24	Z24	X25	Y25	Z25	X26	Y26	Z26	X27	Y27	Z27	X28	Y28	Z28	X29	Y29	Z29	X30	Y30	Z30	X31	Y31	Z31	X32	Y32	Z32	X33	Y33	Z33	X34	Y34	Z34	X35	Y35	Z35	X36	Y36	Z36

1195	9.95000	-503.74228	680.87195	370.88403	-361.62549	630.62646	303.79382	-313.08963	493.09622	186.07349	-271.20239	484.96066	176.87665	-298.62143	551.11725	191.35217	-257.85068	536.40173	180.46771	-78.26905	464.34213	149.89571	-53.51264	448.77692	280.11667	-135.13063	396.06418	142.91100	-156.35495	352.60645	140.30627	-82.65656	365.44376	140.86575	-111.82533	326.90509	141.80844	-280.18857	98.33744	202.58211	-268.63605	103.88036	279.60870	-350.43881	71.10749	245.79871	-162.07280	38.24486	160.72624	-105.87199	71.26844	225.76639	-130.00403	43.81416	269.15802	-514.58545	679.17572	477.50592	-372.43085	644.45905	557.32184	-317.36856	518.99133	682.41669	-272.83719	512.46271	691.33716	-299.82230	574.75177	666.09509	-256.26181	560.18250	680.81470	-100.04408	465.97632	725.50482	-69.51511	445.76553	596.75214	-160.93262	404.83722	736.93561	-178.02466	366.15756	745.12518	-106.80814	374.12656	746.57495	-132.06816	342.21167	753.74725	-283.78091	99.34864	705.46582	-261.57355	109.67913	627.92889	-360.13110	61.70630	660.43634	-140.06194	49.85111	649.86340	-104.65761	71.01704	688.15942	-148.24408	41.40211	755.93604
1196	9.95833	-502.38205	688.29218	370.51718	-360.30505	634.96436	303.73605	-313.16833	497.55212	186.15048	-271.36990	488.83954	176.97966	-297.71765	555.35632	191.50360	-257.03259	540.10449	180.57121	-78.63696	464.97189	150.42558	-54.33613	449.39029	280.43768	-135.19049	396.58658	143.29893	-156.95016	353.10339	140.72633	-83.19328	365.88229	141.26271	-112.21805	327.33688	142.12576	-280.32281	98.33311	202.50394	-268.70474	103.89706	279.49902	-350.46194	71.17028	245.69856	-162.08209	38.24283	160.69147	-105.94464	71.31844	225.71236	-130.08081	43.87673	269.11029	-513.62219	686.52808	477.15094	-371.03204	648.53815	557.31232	-317.41690	523.28351	682.03729	-273.05618	515.98279	690.99335	-298.57422	579.04492	666.00397	-255.58612	563.68585	680.53876	-101.15394	466.16730	725.15863	-70.58550	446.44025	596.48163	-161.57698	405.19424	736.58313	-178.52527	366.43524	744.84106	-107.26395	374.65488	746.14545	-132.57526	342.63617	753.43610	-284.29410	99.41784	705.83954	-261.71881	109.69071	627.98065	-360.21368	61.63867	660.50647	-140.14676	49.94219	649.97729	-104.75464	71.17123	688.21063	-148.28970	41.46949	755.96832
1197	9.96667	-500.84564	695.80328	370.16339	-358.93417	639.48077	303.68228	-313.12479	502.07062	186.25262	-271.43878	492.77484	177.10481	-296.70801	559.71667	191.68266	-256.30563	543.92401	180.81493	-78.87019	465.55426	151.00244	-54.94316	450.06387	280.71548	-135.84944	397.06320	143.94868	-157.37141	353.53519	141.11380	-83.70519	366.32202	141.63724	-112.66756	327.84665	142.38280	-280.40961	98.32601	202.45491	-268.73810	103.93091	279.42526	-350.44507	71.16831	245.64665	-162.08604	38.23222	160.67838	-105.99351	71.37466	225.65756	-130.12865	43.94725	269.07758	-512.65802	693.92969	476.80084	-369.58331	652.78510	557.31042	-317.28241	527.67053	681.72919	-272.85757	519.82648	690.74835	-297.97293	583.15485	665.54468	-254.67493	567.21417	680.30255	-101.54257	466.92044	724.46759	-71.32935	447.29742	596.18951	-162.16548	405.53995	736.23077	-179.06168	366.81003	744.52289	-107.77728	375.04691	745.74347	-133.01810	343.03116	753.08844	-284.44418	99.38925	705.88843	-261.84399	109.72250	628.03705	-360.26651	61.55781	660.60052	-140.20175	50.06763	650.02930	-104.81791	71.30443	688.23755	-148.30421	41.54426	755.98444
1198	9.97500	-499.20508	703.48260	369.88855	-357.51254	644.17682	303.63254	-313.13272	506.71680	186.41350	-271.40250	496.84320	177.12494	-295.64105	564.16876	191.93358	-255.38876	547.82147	180.95563	-79.24455	466.17685	151.60443	-55.78239	450.57913	281.17667	-136.29485	397.57770	144.48239	-157.81892	354.04654	141.54828	-84.20741	366.90588	142.05295	-113.11227	328.36829	142.71014	-280.45740	98.33537	202.38686	-268.80536	103.97871	279.35052	-350.47565	71.10855	245.60231	-162.07449	38.24211	160.66811	-106.03487	71.44669	225.61943	-130.16129	43.99957	269.04724	-511.35675	701.53601	476.51309	-368.08466	657.20074	557.31616	-317.07547	532.12262	681.49097	-272.78552	523.61560	690.54547	-296.92090	587.41534	665.46124	-253.86426	570.74774	680.14398	-101.97180	467.66586	723.78027	-72.31885	447.98618	595.95148	-162.78761	406.00339	735.89343	-179.61531	367.23383	744.19836	-108.40762	375.40164	745.41010	-133.53325	343.47150	752.74396	-284.55151	99.41747	705.95929	-261.94284	109.77628	628.07788	-360.32819	61.48583	660.69049	-140.27237	50.19118	650.06470	-104.87029	71.44626	688.25879	-148.35735	41.61952	755.98987
1199	9.98333	-497.51041	711.20203	369.63400	-356.03998	649.05310	303.58688	-312.86063	511.48749	186.53413	-271.25842	501.04230	177.29276	-294.42496	568.70697	192.08600	-254.43791	551.72083	181.20288	-79.53697	466.90729	152.22772	-56.49614	451.12436	281.59476	-136.82307	398.05472	145.03084	-158.23586	354.50253	141.91063	-84.64076	367.45987	142.43658	-113.67220	328.89069	143.04565	-280.48096	98.35303	202.33928	-268.81021	104.03492	279.30405	-350.40799	71.04686	245.44884	-162.04695	38.26024	160.66905	-106.05450	71.49589	225.59801	-130.16745	44.05642	269.03040	-510.25241	709.19012	476.26868	-366.53607	661.78607	557.32977	-316.80078	536.52832	681.28894	-272.56784	527.48737	690.35272	-295.68924	591.50098	665.40112	-252.97263	574.33673	680.03693	-102.33801	468.42191	723.15460	-73.27755	448.78418	595.71124	-163.33879	406.39706	735.60120	-180.11368	367.55222	743.90161	-108.84293	375.99011	744.98743	-133.94458	343.94427	752.39795	-284.62915	99.45706	706.03784	-262.02338	109.83010	628.12921	-360.36279	61.47969	660.74335	-140.29567	50.30413	650.10046	-104.88314	71.62193	688.27014	-148.38153	41.70466	755.99841
1200	9.99167	-495.74673	718.97144	369.36630	-354.51614	654.11060	303.54535	-312.70737	516.19904	186.70711	-271.15842	505.18030	177.36707	-293.19632	573.20337	192.32904	-253.39694	555.68506	181.33774	-79.88505	467.57858	152.80443	-57.16921	451.69037	281.98862	-137.41176	398.59674	145.58490	-158.78075	355.07007	142.36006	-85.12611	368.03592	142.85411	-114.04077	329.38068	143.35826	-280.51746	98.36735	202.29823	-268.83829	104.05620	279.24881	-350.35687	70.96920	245.31351	-162.04352	38.26049	160.65761	-106.06596	71.52099	225.57919	-129.82976	44.36974	269.04767	-508.90015	716.94769	476.05832	-364.93744	666.54175	557.35144	-316.23392	541.02130	681.30548	-272.32037	531.38971	690.19244	-294.07291	595.82983	665.49402	-252.03394	577.93457	679.89600	-102.68963	469.25034	722.60388	-74.13030	450.03659	594.98096	-164.00330	406.86743	735.20886	-180.75366	368.00018	743.56140	-109.49039	376.53653	744.64252	-134.47153	344.43118	752.10327	-284.74689	99.47771	706.09344	-262.11920	109.87386	628.17517	-360.38205	61.46334	660.78174	-140.29588	50.40680	650.12885	-104.93790	71.76824	688.28937	-148.39705	41.79910	755.98383
1201	10.00000	-493.98224	726.82385	369.04428	-352.94092	659.35028	303.50806	-312.39462	520.91455	186.83563	-271.02872	509.35239	177.51123	-291.87946	577.71649	192.51508	-252.03256	559.74463	181.13977	-80.24855	468.27704	153.39676	-57.81846	452.30789	282.28500	-137.90315	399.13446	146.11061	-159.53934	355.47784	142.64993	-85.65923	368.60300	143.30611	-114.54706	329.96722	143.69124	-280.56079	98.38181	202.23727	-268.91232	104.07116	279.20215	-350.39633	70.99025	245.23343	-162.02774	38.25896	160.63664	-106.08221	71.51631	225.56688	-129.85378	44.38221	269.02432	-507.43002	724.74176	475.88834	-363.28885	671.46881	557.38129	-315.81650	545.54492	681.05908	-272.06610	535.29254	690.02698	-292.74985	600.12238	665.42957	-250.98280	581.58307	679.79303	-103.16052	469.99539	722.04932	-74.68484	451.69489	594.52136	-164.78313	407.29465	734.88043	-181.44919	368.43353	743.33789	-110.19716	377.00043	744.36823	-135.22783	344.89706	751.84668	-284.51205	99.37232	705.83179	-262.23007	109.91538	628.22906	-360.42078	61.41526	660.82739	-140.36397	50.49368	650.15253	-104.97987	71.89865	688.29755	-148.40797	41.88777	755.95837
1202	10.00833	-491.67929	734.81091	368.46890	-351.31393	664.77295	303.47498	-312.03745	525.61829	187.00227	-270.71185	513.46283	177.64822	-290.53146	582.20496	192.63994	-250.91367	563.76007	181.20715	-80.53428	469.02136	153.91074	-58.41806	453.09799	282.55923	-138.48367	399.69482	146.63983	-159.75938	356.22977	143.06340	-86.26985	369.19153	143.67300	-115.10764	330.53235	143.97540	-280.60355	98.35880	202.18352	-268.99881	104.07162	279.15186	-350.39911	71.01067	245.17326	-162.04489	38.23984	160.63284	-106.11002	71.46557	225.57401	-129.87360	44.38452	269.02118	-506.06918	732.74268	475.63727	-361.59009	676.56799	557.41925	-315.63663	550.08331	680.61786	-271.86307	539.22943	689.91364	-291.80542	604.41150	665.25549	-249.98035	585.20087	679.85388	-103.74532	470.81042	721.55225	-76.55442	451.82925	594.78137	-165.56094	407.77661	734.56586	-182.29964	368.89148	743.10449	-110.97235	377.62918	744.07281	-135.99825	345.41733	751.63049	-284.62943	99.39124	705.90869	-262.37000	109.94196	628.27539	-360.45782	61.35260	660.88123	-140.45770	50.59007	650.15973	-105.05750	72.03367	688.30206	-148.45070	41.98403	755.94360
